<svg width="206" height="208" viewBox="0 0 206 208" fill="none" xmlns="http://www.w3.org/2000/svg">
<circle cx="105" cy="4" r="4" fill="#006EE6"/>
<circle cx="132" cy="8" r="4" fill="#006EE6"/>
<circle cx="156" cy="20" r="4" fill="#006EE6"/>
<circle cx="174" cy="34" r="4" fill="#006EE6"/>
<circle cx="188" cy="53" r="4" fill="#006EE6"/>
<circle cx="197" cy="73" r="4" fill="#006EE6"/>
<circle cx="202" cy="93" r="4" fill="#006EE6"/>
<circle cx="202" cy="113" r="4" fill="#006EE6"/>
<circle cx="197" cy="136" r="4" fill="#006EE6"/>
<circle cx="184" cy="159" r="4" fill="#006EE6"/>
<circle cx="169" cy="176" r="4" fill="#006EE6"/>
<circle cx="151" cy="190" r="4" fill="#006EE6"/>
<circle cx="129" cy="200" r="4" fill="#006EE6"/>
<circle cx="103" cy="204" r="4" transform="rotate(-180 103 204)" fill="#006EE6"/>
<circle cx="74" cy="200" r="4" transform="rotate(-180 74 200)" fill="#006EE6"/>
<circle cx="50" cy="188" r="4" transform="rotate(-180 50 188)" fill="#006EE6"/>
<circle cx="32" cy="174" r="4" transform="rotate(-180 32 174)" fill="#006EE6"/>
<circle cx="18" cy="155" r="4" transform="rotate(-180 18 155)" fill="#006EE6"/>
<circle cx="9" cy="135" r="4" transform="rotate(-180 9 135)" fill="#006EE6"/>
<circle cx="4" cy="115" r="4" transform="rotate(-180 4 115)" fill="#006EE6"/>
<circle cx="4" cy="95" r="4" transform="rotate(-180 4 95)" fill="#006EE6"/>
<circle cx="9" cy="72" r="4" transform="rotate(-180 9 72)" fill="#006EE6"/>
<circle cx="22" cy="49" r="4" transform="rotate(-180 22 49)" fill="#006EE6"/>
<circle cx="37" cy="32" r="4" transform="rotate(-180 37 32)" fill="#006EE6"/>
<circle cx="55" cy="18" r="4" transform="rotate(-180 55 18)" fill="#006EE6"/>
<circle cx="77" cy="8" r="4" transform="rotate(-180 77 8)" fill="#006EE6"/>
</svg>
